<svg width="206" height="194" viewBox="0 0 206 194" fill="none" xmlns="http://www.w3.org/2000/svg">
<g clip-path="url(#clip0_3112_24086)">
<path d="M65.1504 189.621C65.1504 192.046 63.1866 194 60.75 194C58.3134 194 56.3496 192.046 56.3496 189.621C56.3496 187.196 58.3134 185.241 60.75 185.241C63.1866 185.241 65.1504 187.196 65.1504 189.621Z" fill="white"/>
<path d="M93.3164 189.621C93.3164 192.046 91.3526 194 88.916 194C86.4794 194 84.5156 192.046 84.5156 189.621C84.5156 187.196 86.4794 185.241 88.916 185.241C91.3526 185.241 93.3164 187.196 93.3164 189.621Z" fill="white"/>
<path d="M121.482 189.621C121.482 192.046 119.519 194 117.082 194C114.645 194 112.682 192.046 112.682 189.621C112.682 187.196 114.645 185.241 117.082 185.241C119.519 185.241 121.482 187.196 121.482 189.621Z" fill="white"/>
<path d="M149.666 189.621C149.666 192.046 147.702 194 145.266 194C142.829 194 140.865 192.046 140.865 189.621C140.865 187.196 142.829 185.241 145.266 185.241C147.702 185.241 149.666 187.196 149.666 189.621Z" fill="white"/>
<path d="M36.9668 163.163C36.9668 165.588 35.003 167.542 32.5664 167.542C30.1298 167.542 28.166 165.588 28.166 163.163C28.166 160.738 30.1298 158.783 32.5664 158.783C35.003 158.783 36.9668 160.738 36.9668 163.163Z" fill="white"/>
<path d="M65.1504 163.163C65.1504 165.588 63.1866 167.542 60.75 167.542C58.3134 167.542 56.3496 165.588 56.3496 163.163C56.3496 160.738 58.3134 158.783 60.75 158.783C63.1866 158.783 65.1504 160.738 65.1504 163.163Z" fill="white"/>
<path d="M93.3164 163.163C93.3164 165.588 91.3526 167.542 88.916 167.542C86.4794 167.542 84.5156 165.588 84.5156 163.163C84.5156 160.738 86.4794 158.783 88.916 158.783C91.3526 158.783 93.3164 160.738 93.3164 163.163Z" fill="white"/>
<path d="M121.482 163.163C121.482 165.588 119.519 167.542 117.082 167.542C114.645 167.542 112.682 165.588 112.682 163.163C112.682 160.738 114.645 158.783 117.082 158.783C119.519 158.783 121.482 160.738 121.482 163.163Z" fill="white"/>
<path d="M149.668 163.163C149.668 165.588 147.704 167.542 145.268 167.542C142.831 167.542 140.867 165.588 140.867 163.163C140.867 160.738 142.831 158.783 145.268 158.783C147.704 158.783 149.668 160.738 149.668 163.163Z" fill="white"/>
<path d="M177.834 163.163C177.834 165.588 175.87 167.542 173.434 167.542C170.997 167.542 169.033 165.588 169.033 163.163C169.033 160.738 170.997 158.783 173.434 158.783C175.87 158.783 177.834 160.738 177.834 163.163Z" fill="white"/>
<path d="M36.9668 136.687C36.9668 139.112 35.003 141.066 32.5664 141.066C30.1298 141.066 28.166 139.112 28.166 136.687C28.166 134.262 30.1298 132.307 32.5664 132.307C35.003 132.307 36.9668 134.262 36.9668 136.687Z" fill="white"/>
<path d="M65.1504 136.687C65.1504 139.112 63.1866 141.066 60.75 141.066C58.3134 141.066 56.3496 139.112 56.3496 136.687C56.3496 134.262 58.3134 132.307 60.75 132.307C63.1866 132.307 65.1504 134.262 65.1504 136.687Z" fill="white"/>
<path d="M93.3164 136.687C93.3164 139.112 91.3526 141.066 88.916 141.066C86.4794 141.066 84.5156 139.112 84.5156 136.687C84.5156 134.262 86.4794 132.307 88.916 132.307C91.3526 132.307 93.3164 134.262 93.3164 136.687Z" fill="white"/>
<path d="M121.482 136.687C121.482 139.112 119.519 141.066 117.082 141.066C114.645 141.066 112.682 139.112 112.682 136.687C112.682 134.262 114.645 132.307 117.082 132.307C119.519 132.307 121.482 134.262 121.482 136.687Z" fill="white"/>
<path d="M149.668 136.687C149.668 139.112 147.704 141.066 145.268 141.066C142.831 141.066 140.867 139.112 140.867 136.687C140.867 134.262 142.831 132.307 145.268 132.307C147.704 132.307 149.668 134.262 149.668 136.687Z" fill="white"/>
<path d="M177.834 136.687C177.834 139.112 175.87 141.066 173.434 141.066C170.997 141.066 169.033 139.112 169.033 136.687C169.033 134.262 170.997 132.307 173.434 132.307C175.87 132.307 177.834 134.262 177.834 136.687Z" fill="white"/>
<path d="M8.80078 110.229C8.80078 112.654 6.83697 114.609 4.40039 114.609C1.96381 114.609 0 112.654 0 110.229C0 107.804 1.96381 105.85 4.40039 105.85C6.83697 105.85 8.80078 107.804 8.80078 110.229Z" fill="white"/>
<path d="M36.9668 110.229C36.9668 112.654 35.003 114.609 32.5664 114.609C30.1298 114.609 28.166 112.654 28.166 110.229C28.166 107.804 30.1298 105.85 32.5664 105.85C35.003 105.85 36.9668 107.804 36.9668 110.229Z" fill="white"/>
<path d="M65.1504 110.229C65.1504 112.654 63.1866 114.609 60.75 114.609C58.3134 114.609 56.3496 112.654 56.3496 110.229C56.3496 107.804 58.3134 105.85 60.75 105.85C63.1866 105.85 65.1504 107.804 65.1504 110.229Z" fill="white"/>
<path d="M93.3164 110.229C93.3164 112.654 91.3526 114.609 88.916 114.609C86.4794 114.609 84.5156 112.654 84.5156 110.229C84.5156 107.804 86.4794 105.85 88.916 105.85C91.3526 105.85 93.3164 107.804 93.3164 110.229Z" fill="white"/>
<path d="M121.484 110.229C121.484 112.654 119.521 114.609 117.084 114.609C114.647 114.609 112.684 112.654 112.684 110.229C112.684 107.804 114.647 105.85 117.084 105.85C119.521 105.85 121.484 107.804 121.484 110.229Z" fill="white"/>
<path d="M149.668 110.229C149.668 112.654 147.704 114.609 145.268 114.609C142.831 114.609 140.867 112.654 140.867 110.229C140.867 107.804 142.831 105.85 145.268 105.85C147.704 105.85 149.668 107.804 149.668 110.229Z" fill="white"/>
<path d="M177.834 110.229C177.834 112.654 175.87 114.609 173.434 114.609C170.997 114.609 169.033 112.654 169.033 110.229C169.033 107.804 170.997 105.85 173.434 105.85C175.87 105.85 177.834 107.804 177.834 110.229Z" fill="white"/>
<path d="M201.6 114.609C204.03 114.609 206 112.648 206 110.229C206 107.81 204.03 105.85 201.6 105.85C199.169 105.85 197.199 107.81 197.199 110.229C197.199 112.648 199.169 114.609 201.6 114.609Z" fill="white"/>
<path d="M8.80078 83.7711C8.80078 86.1961 6.83697 88.1506 4.40039 88.1506C1.96381 88.1506 0 86.1961 0 83.7711C0 81.3461 1.96381 79.3916 4.40039 79.3916C6.83697 79.3916 8.80078 81.3461 8.80078 83.7711Z" fill="white"/>
<path d="M36.9668 83.7711C36.9668 86.1961 35.003 88.1506 32.5664 88.1506C30.1298 88.1506 28.166 86.1961 28.166 83.7711C28.166 81.3461 30.1298 79.3916 32.5664 79.3916C35.003 79.3916 36.9668 81.3461 36.9668 83.7711Z" fill="white"/>
<path d="M65.1504 83.7711C65.1504 86.1961 63.1866 88.1506 60.75 88.1506C58.3134 88.1506 56.3496 86.1961 56.3496 83.7711C56.3496 81.3461 58.3134 79.3916 60.75 79.3916C63.1866 79.3916 65.1504 81.3461 65.1504 83.7711Z" fill="white"/>
<path d="M93.3164 83.7711C93.3164 86.1961 91.3526 88.1506 88.916 88.1506C86.4794 88.1506 84.5156 86.1961 84.5156 83.7711C84.5156 81.3461 86.4794 79.3916 88.916 79.3916C91.3526 79.3916 93.3164 81.3461 93.3164 83.7711Z" fill="white"/>
<path d="M121.484 83.7711C121.484 86.1961 119.521 88.1506 117.084 88.1506C114.647 88.1506 112.684 86.1961 112.684 83.7711C112.684 81.3461 114.647 79.3916 117.084 79.3916C119.521 79.3916 121.484 81.3461 121.484 83.7711Z" fill="white"/>
<path d="M149.668 83.7711C149.668 86.1961 147.704 88.1506 145.268 88.1506C142.831 88.1506 140.867 86.1961 140.867 83.7711C140.867 81.3461 142.831 79.3916 145.268 79.3916C147.704 79.3916 149.668 81.3461 149.668 83.7711Z" fill="white"/>
<path d="M177.834 83.7711C177.834 86.1961 175.87 88.1506 173.434 88.1506C170.997 88.1506 169.033 86.1961 169.033 83.7711C169.033 81.3461 170.997 79.3916 173.434 79.3916C175.87 79.3916 177.834 81.3461 177.834 83.7711Z" fill="white"/>
<path d="M206 83.7711C206 86.1961 204.036 88.1506 201.6 88.1506C199.163 88.1506 197.199 86.1961 197.199 83.7711C197.199 81.3461 199.163 79.3916 201.6 79.3916C204.036 79.3916 206 81.3461 206 83.7711Z" fill="white"/>
<path d="M36.9668 57.3131C36.9668 59.7381 35.003 61.6925 32.5664 61.6925C30.1298 61.6925 28.166 59.7381 28.166 57.3131C28.166 54.8881 30.1298 52.9336 32.5664 52.9336C35.003 52.9336 36.9668 54.8881 36.9668 57.3131Z" fill="white"/>
<path d="M65.1504 57.3131C65.1504 59.7381 63.1866 61.6925 60.75 61.6925C58.3134 61.6925 56.3496 59.7381 56.3496 57.3131C56.3496 54.8881 58.3134 52.9336 60.75 52.9336C63.1866 52.9336 65.1504 54.8881 65.1504 57.3131Z" fill="white"/>
<path d="M93.3164 57.3131C93.3164 59.7381 91.3526 61.6925 88.916 61.6925C86.4794 61.6925 84.5156 59.7381 84.5156 57.3131C84.5156 54.8881 86.4794 52.9336 88.916 52.9336C91.3526 52.9336 93.3164 54.8881 93.3164 57.3131Z" fill="white"/>
<path d="M121.482 57.3131C121.482 59.7381 119.519 61.6925 117.082 61.6925C114.645 61.6925 112.682 59.7381 112.682 57.3131C112.682 54.8881 114.645 52.9336 117.082 52.9336C119.519 52.9336 121.482 54.8881 121.482 57.3131Z" fill="white"/>
<path d="M149.668 57.3131C149.668 59.7381 147.704 61.6925 145.268 61.6925C142.831 61.6925 140.867 59.7381 140.867 57.3131C140.867 54.8881 142.831 52.9336 145.268 52.9336C147.704 52.9336 149.668 54.8881 149.668 57.3131Z" fill="white"/>
<path d="M177.834 57.3131C177.834 59.7381 175.87 61.6925 173.434 61.6925C170.997 61.6925 169.033 59.7381 169.033 57.3131C169.033 54.8881 170.997 52.9336 173.434 52.9336C175.87 52.9336 177.834 54.8881 177.834 57.3131Z" fill="white"/>
<path d="M36.9668 30.8375C36.9668 33.2625 35.003 35.217 32.5664 35.217C30.1298 35.217 28.166 33.2625 28.166 30.8375C28.166 28.4125 30.1298 26.458 32.5664 26.458C35.003 26.458 36.9668 28.4125 36.9668 30.8375Z" fill="white"/>
<path d="M65.1504 30.8375C65.1504 33.2625 63.1866 35.217 60.75 35.217C58.3134 35.217 56.3496 33.2625 56.3496 30.8375C56.3496 28.4125 58.3134 26.458 60.75 26.458C63.1866 26.458 65.1504 28.4125 65.1504 30.8375Z" fill="white"/>
<path d="M93.3164 30.8375C93.3164 33.2625 91.3526 35.217 88.916 35.217C86.4794 35.217 84.5156 33.2625 84.5156 30.8375C84.5156 28.4125 86.4794 26.458 88.916 26.458C91.3526 26.458 93.3164 28.4125 93.3164 30.8375Z" fill="white"/>
<path d="M121.482 30.8375C121.482 33.2625 119.519 35.217 117.082 35.217C114.645 35.217 112.682 33.2625 112.682 30.8375C112.682 28.4125 114.645 26.458 117.082 26.458C119.519 26.458 121.482 28.4125 121.482 30.8375Z" fill="white"/>
<path d="M149.668 30.8375C149.668 33.2625 147.704 35.217 145.268 35.217C142.831 35.217 140.867 33.2625 140.867 30.8375C140.867 28.4125 142.831 26.458 145.268 26.458C147.704 26.458 149.668 28.4125 149.668 30.8375Z" fill="white"/>
<path d="M177.834 30.8375C177.834 33.2625 175.87 35.217 173.434 35.217C170.997 35.217 169.033 33.2625 169.033 30.8375C169.033 28.4125 170.997 26.458 173.434 26.458C175.87 26.458 177.834 28.4125 177.834 30.8375Z" fill="white"/>
<path d="M65.1504 4.37948C65.1504 6.80448 63.1866 8.75896 60.75 8.75896C58.3134 8.75896 56.3496 6.80448 56.3496 4.37948C56.3496 1.95448 58.3134 0 60.75 0C63.1866 0 65.1504 1.95448 65.1504 4.37948Z" fill="white"/>
<path d="M93.3164 4.37948C93.3164 6.80448 91.3526 8.75896 88.916 8.75896C86.4794 8.75896 84.5156 6.80448 84.5156 4.37948C84.5156 1.95448 86.4794 0 88.916 0C91.3526 0 93.3164 1.95448 93.3164 4.37948Z" fill="white"/>
<path d="M121.482 4.37948C121.482 6.80448 119.519 8.75896 117.082 8.75896C114.645 8.75896 112.682 6.80448 112.682 4.37948C112.682 1.95448 114.645 0 117.082 0C119.519 0 121.482 1.95448 121.482 4.37948Z" fill="white"/>
<path d="M149.666 4.37948C149.666 6.80448 147.702 8.75896 145.266 8.75896C142.829 8.75896 140.865 6.80448 140.865 4.37948C140.865 1.95448 142.829 0 145.266 0C147.702 0 149.666 1.95448 149.666 4.37948Z" fill="white"/>
</g>
<defs>
<clipPath id="clip0_3112_24086">
<rect width="206" height="194" fill="white"/>
</clipPath>
</defs>
</svg>
